HIERARCHY
ROOT Hips
{
	OFFSET -0.001795 -0.223333 0.028219
	CHANNELS 6 Xposition Yposition Zposition Zrotation Yrotation Xrotation 
	JOINT LeftUpLeg
	{
		OFFSET 0.069520 -0.091406 -0.006815
		CHANNELS 3 Zrotation Yrotation Xrotation
		JOINT LeftLeg
		{
			OFFSET 0.034277 -0.375199 -0.004496
			CHANNELS 3 Zrotation Yrotation Xrotation
			JOINT LeftFoot
			{
				OFFSET -0.013596 -0.397961 -0.043693
				CHANNELS 3 Zrotation Yrotation Xrotation
				JOINT LeftToe
				{
					OFFSET 0.026358 -0.055791 0.119288
					CHANNELS 3 Zrotation Yrotation Xrotation
					End Site
					{
						OFFSET 0.000000 0.000000 0.000000
					}
				}
			}
		}
	}
	JOINT RightUpLeg
	{
		OFFSET -0.067670 -0.090522 -0.004320
		CHANNELS 3 Zrotation Yrotation Xrotation
		JOINT RightLeg
		{
			OFFSET -0.038290 -0.382569 -0.008850
			CHANNELS 3 Zrotation Yrotation Xrotation
			JOINT RightFoot
			{
				OFFSET 0.015774 -0.398415 -0.042312
				CHANNELS 3 Zrotation Yrotation Xrotation
				JOINT RightToe
				{
					OFFSET -0.025372 -0.048144 0.123348
					CHANNELS 3 Zrotation Yrotation Xrotation
					End Site
					{
						OFFSET 0.000000 0.000000 0.000000
					}
				}
			}
		}
	}
	JOINT Spine
	{
		OFFSET -0.002533 0.108963 -0.026696
		CHANNELS 3 Zrotation Yrotation Xrotation
		JOINT Spine1
		{
			OFFSET 0.005487 0.135180 0.001092
			CHANNELS 3 Zrotation Yrotation Xrotation
			JOINT Spine2
			{
				OFFSET 0.001457 0.052922 0.025425
				CHANNELS 3 Zrotation Yrotation Xrotation
				JOINT Neck
				{
					OFFSET -0.002778 0.213870 -0.042857
					CHANNELS 3 Zrotation Yrotation Xrotation
					JOINT Head
					{
						OFFSET 0.005152 0.064970 0.051349
						CHANNELS 3 Zrotation Yrotation Xrotation
						End Site
						{
							OFFSET 0.000000 0.000000 0.000000
						}
					}
				}
				JOINT LeftShoulder
				{
					OFFSET 0.078845 0.121749 -0.034090
					CHANNELS 3 Zrotation Yrotation Xrotation
					JOINT LeftArm
					{
						OFFSET 0.090977 0.030469 -0.008868
						CHANNELS 3 Zrotation Yrotation Xrotation
						JOINT LeftForeArm
						{
							OFFSET 0.259612 -0.012772 -0.027456
							CHANNELS 3 Zrotation Yrotation Xrotation
							JOINT LeftHand
							{
								OFFSET 0.249234 0.008986 -0.001171
								CHANNELS 3 Zrotation Yrotation Xrotation
								End Site
								{
									OFFSET 0.000000 0.000000 0.000000
								}
							}
						}
					}
				}
				JOINT RightShoulder
				{
					OFFSET -0.081759 0.118833 -0.038615
					CHANNELS 3 Zrotation Yrotation Xrotation
					JOINT RightArm
					{
						OFFSET -0.096012 0.032551 -0.009143
						CHANNELS 3 Zrotation Yrotation Xrotation
						JOINT RightForeArm
						{
							OFFSET -0.253742 -0.013329 -0.021401
							CHANNELS 3 Zrotation Yrotation Xrotation
							JOINT RightHand
							{
								OFFSET -0.255298 0.007772 -0.005559
								CHANNELS 3 Zrotation Yrotation Xrotation
								End Site
								{
									OFFSET 0.000000 0.000000 0.000000
								}
							}
						}
					}
				}
			}
		}
	}
}
MOTION
Frames: 7
Frame Time: 0.050000
0.126621 0.747185 -0.502043 -1.064536 -45.829575 10.320402 -11.922618 3.455070 -56.539415 33.928251 -13.122953 64.553755 0.326924 -6.963397 -19.288890 0.000000 0.000000 0.000000 -12.846996 12.967421 -55.250345 26.904992 -1.665570 63.333301 -14.288547 -46.052735 -12.114202 0.000000 0.000000 0.000000 27.061566 0.291801 78.918552 -11.871997 1.481577 -36.603774 -17.178193 -16.203548 28.821039 9.736306 -1.920655 -52.446795 0.000000 0.000000 0.000000 -11.862344 -25.629266 15.161322 -47.052059 -45.493317 12.408356 62.412043 -27.294817 -10.603118 0.000000 0.000000 0.000000 22.457581 13.888671 -1.172123 62.136851 22.339855 4.445663 -58.605923 56.151094 -35.516651 0.000000 0.000000 0.000000 
0.119351 0.739125 -0.504017 -1.001168 -45.106803 9.356659 -11.410882 3.288767 -55.776507 33.722948 -13.315424 66.751123 1.474256 -5.420821 -22.099613 0.000000 0.000000 0.000000 -14.225817 12.573917 -56.024509 30.999336 -4.693755 64.796338 -15.236981 -47.425537 -10.236667 0.000000 0.000000 0.000000 26.116752 0.565031 79.704145 -11.919281 1.401259 -37.036105 -17.023004 -15.875993 29.193997 9.850512 -1.981750 -52.314921 0.000000 0.000000 0.000000 -11.589136 -24.944867 14.543316 -47.672467 -46.254840 13.019365 65.120762 -28.687498 -11.877658 0.000000 0.000000 0.000000 23.272305 13.608378 -1.197180 61.954635 21.683826 4.110368 -63.532931 59.009080 -40.613214 0.000000 0.000000 0.000000 
0.110875 0.728829 -0.504930 -1.537019 -43.424150 8.679572 -10.482031 3.012666 -55.047986 34.214255 -14.366424 68.617986 2.002463 -6.492167 -25.276327 0.000000 0.000000 0.000000 -13.839819 12.359300 -56.294694 33.506003 -7.246080 67.621670 -16.058009 -48.651186 -9.412199 0.000000 0.000000 0.000000 24.412327 0.816511 80.745047 -11.272791 1.114630 -38.583086 -15.956971 -14.969041 30.032456 10.331825 -2.203502 -52.357691 0.000000 0.000000 0.000000 -14.000702 -25.349852 15.535766 -43.737825 -46.079659 10.784464 70.424686 -31.204218 -14.911452 0.000000 0.000000 0.000000 24.589327 13.853024 -0.702159 59.433137 23.333668 4.802292 -68.070204 58.775234 -42.934216 0.000000 0.000000 0.000000 
0.101292 0.712413 -0.503838 -2.503636 -43.333262 8.298344 -9.090536 3.848141 -55.855668 34.016023 -15.424400 73.002633 3.005280 -5.509315 -26.998597 0.000000 0.000000 0.000000 -17.327043 12.238174 -59.951802 41.374084 -14.193683 68.174706 -20.596359 -51.737506 -0.472367 0.000000 0.000000 0.000000 23.189990 1.510917 81.693640 -12.133690 1.092280 -37.882866 -13.083807 -14.727516 28.091548 8.241351 -1.853831 -50.751733 0.000000 0.000000 0.000000 -14.464227 -26.385706 16.054215 -41.514910 -46.267219 10.004913 74.137361 -32.983567 -17.527131 0.000000 0.000000 0.000000 24.144728 13.288460 -0.487659 58.040775 22.939773 4.437311 -73.420960 60.050964 -47.696288 0.000000 0.000000 0.000000 
0.090454 0.687603 -0.500508 -3.769224 -41.601655 8.257752 -9.210371 3.593901 -57.279314 36.755836 -19.576113 75.686060 3.641412 -6.847708 -29.209297 0.000000 0.000000 0.000000 -22.746566 10.859838 -64.294316 47.503409 -20.781106 66.412415 -24.256720 -53.748453 4.635325 0.000000 0.000000 0.000000 22.323931 1.310280 82.714990 -10.015059 0.765982 -39.178619 -12.280809 -13.101150 28.536939 7.619556 -1.692530 -49.834571 0.000000 0.000000 0.000000 -12.938695 -26.639509 15.132664 -40.340567 -47.135667 9.987809 77.940212 -33.660463 -19.466077 0.000000 0.000000 0.000000 22.608451 12.300416 0.107925 58.651732 25.330013 5.187416 -79.295000 60.667065 -51.763526 0.000000 0.000000 0.000000 
0.078014 0.656532 -0.495155 -4.506931 -42.143777 8.595928 -9.213562 4.391542 -59.369493 38.647186 -22.975228 79.383875 4.989744 -5.664541 -31.992972 0.000000 0.000000 0.000000 -24.321433 11.617476 -68.581980 47.778781 -22.180533 66.141360 -18.728299 -60.665154 -15.244348 0.000000 0.000000 0.000000 23.217589 0.983924 83.152048 -11.759397 0.959088 -37.801057 -10.999742 -13.491895 27.518251 6.973417 -1.634335 -49.325789 0.000000 0.000000 0.000000 -12.638572 -27.408069 15.372314 -37.486601 -48.987750 9.797859 80.714461 -33.669764 -20.768819 0.000000 0.000000 0.000000 21.984089 12.918325 0.534988 57.176464 27.400488 6.052442 -86.109629 59.307465 -56.226122 0.000000 0.000000 0.000000 
0.063711 0.619256 -0.487407 -4.086834 -42.294610 8.189116 -9.320419 4.956232 -61.618869 40.317268 -27.361897 83.720487 6.192925 -7.452048 -35.781063 0.000000 0.000000 0.000000 -26.078865 11.593619 -71.518153 48.883874 -24.911993 67.462549 -14.201515 -61.525253 -25.885114 0.000000 0.000000 0.000000 24.778097 -0.034501 84.074950 -12.057567 1.088431 -37.474989 -12.656451 -13.294532 28.426618 8.264519 -1.821293 -49.813712 0.000000 0.000000 0.000000 -7.921548 -29.012963 13.931279 -35.714541 -51.144130 10.592419 81.680392 -29.891996 -18.435601 0.000000 0.000000 0.000000 20.057935 12.698958 0.957064 57.914249 32.138415 8.179710 -91.984432 58.201230 -59.759779 0.000000 0.000000 0.000000 
